<?xml version="1.0" encoding="UTF-8"?>
<svg xmlns="http://www.w3.org/2000/svg" xmlns:xlink="http://www.w3.org/1999/xlink" width="38pt" height="38pt" viewBox="0 0 50 50" version="1.1">
<g id="surface3012316">
<path style=" stroke:none;fill-rule:nonzero;fill:#fff;fill-opacity:1;" d="M 0 25 C 0 11.191406 11.191406 0 25 0 C 38.808594 0 50 11.191406 50 25 C 50 38.808594 38.808594 50 25 50 C 11.191406 50 0 38.808594 0 25 Z M 25 46 C 36.597656 46 46 36.597656 46 25 C 46 13.402344 36.597656 4 25 4 C 13.402344 4 4 13.402344 4 25 C 4 36.597656 13.402344 46 25 46 Z M 25 46 "/>
<path style=" stroke:none;fill-rule:nonzero;fill:#fff;fill-opacity:1;" d="M 22.289062 6.601562 C 20.148438 6.601562 15.242188 8.050781 14.203125 9.125 C 13.816406 9.492188 13.722656 10.039062 13.816406 10.40625 C 14.007812 10.773438 21.792969 22.585938 21.792969 22.585938 C 22.640625 23.929688 23.191406 24.175781 23.535156 24.175781 C 23.660156 24.175781 23.757812 24.144531 23.835938 24.121094 C 24.125 24.027344 25.085938 23.683594 24.894531 21.488281 C 24.800781 19.011719 24.03125 8.117188 23.933594 7.570312 C 23.742188 7.113281 23.453125 6.742188 22.878906 6.648438 C 22.71875 6.617188 22.519531 6.601562 22.289062 6.601562 Z M 22.289062 8.199219 C 22.332031 8.199219 22.363281 8.199219 22.390625 8.199219 C 22.570312 10.265625 23.207031 19.273438 23.292969 21.550781 L 23.300781 21.625 C 23.3125 21.761719 23.316406 21.882812 23.316406 21.992188 C 23.257812 21.910156 23.195312 21.8125 23.128906 21.703125 C 20.492188 17.707031 16.660156 11.867188 15.523438 10.109375 C 16.558594 9.4375 20.417969 8.199219 22.289062 8.199219 Z M 34.394531 17.796875 C 34.140625 17.796875 33.902344 17.867188 33.691406 18.015625 C 33.089844 18.605469 33.300781 18.1875 29.847656 22.761719 L 28.214844 24.867188 C 27.832031 25.324219 27.921875 26.085938 28.304688 26.636719 C 28.625 27.09375 29.039062 27.371094 29.589844 27.371094 C 29.703125 27.371094 29.816406 27.363281 29.941406 27.335938 C 30.230469 27.246094 30.808594 27.152344 31.863281 26.878906 C 38.488281 25.414062 38.546875 25.429688 38.835938 25.246094 C 39.21875 24.972656 39.410156 24.601562 39.410156 24.054688 L 39.410156 23.960938 C 39.222656 22.5 36.378906 18.566406 35.035156 17.925781 C 34.816406 17.84375 34.601562 17.796875 34.394531 17.796875 Z M 34.488281 19.460938 C 35.398438 20.105469 37.351562 22.792969 37.757812 23.929688 C 37.253906 24.054688 36.203125 24.285156 34.425781 24.675781 L 31.519531 25.316406 L 31.488281 25.324219 L 31.460938 25.332031 C 30.902344 25.476562 30.488281 25.566406 30.175781 25.632812 C 29.96875 25.679688 29.796875 25.71875 29.644531 25.757812 C 29.636719 25.746094 29.628906 25.734375 29.613281 25.722656 C 29.609375 25.710938 29.605469 25.703125 29.597656 25.691406 L 31.125 23.726562 C 33.792969 20.195312 34.207031 19.730469 34.488281 19.460938 Z M 12.523438 24.175781 C 12.140625 24.175781 11.660156 24.359375 11.371094 24.816406 C 10.699219 25.734375 10.488281 28.65625 10.683594 30.671875 C 10.777344 31.3125 10.875 31.835938 11.066406 32.199219 C 11.351562 32.660156 11.738281 32.933594 12.21875 32.933594 C 12.503906 32.933594 12.289062 32.851562 18.050781 31.203125 L 20.648438 30.378906 C 21.320312 30.195312 21.789062 29.738281 21.789062 29.003906 C 21.789062 28.273438 21.433594 27.664062 20.761719 27.390625 L 18.9375 26.660156 C 12.691406 24.183594 12.8125 24.175781 12.523438 24.175781 Z M 12.613281 25.863281 C 12.898438 25.972656 13.363281 26.160156 13.980469 26.40625 C 14.898438 26.773438 16.269531 27.320312 18.339844 28.140625 L 20.140625 28.863281 L 17.589844 29.671875 C 14.421875 30.578125 13.058594 31.007812 12.410156 31.226562 C 12.347656 30.980469 12.296875 30.648438 12.269531 30.476562 C 12.097656 28.566406 12.347656 26.476562 12.613281 25.863281 Z M 29.71875 30.613281 C 29.285156 30.613281 28.878906 30.75 28.566406 31.085938 C 28.253906 31.429688 28.019531 32.382812 28.402344 32.933594 L 29.457031 34.492188 C 32.917969 39.804688 32.9375 40.074219 33.222656 40.257812 C 33.449219 40.472656 33.707031 40.5625 33.976562 40.5625 C 34.171875 40.5625 34.371094 40.515625 34.566406 40.441406 C 36.109375 39.890625 39.113281 36.25 39.304688 34.789062 C 39.402344 34.328125 39.210938 33.867188 38.828125 33.414062 C 38.632812 33.226562 38.234375 33.164062 32.851562 31.492188 L 30.390625 30.710938 C 30.160156 30.648438 29.9375 30.613281 29.71875 30.613281 Z M 23.214844 32.210938 C 22.792969 32.210938 22.402344 32.335938 22.160156 32.683594 L 20.910156 34.148438 C 16.585938 39 16.394531 39.273438 16.300781 39.550781 C 16.203125 39.734375 16.203125 39.914062 16.203125 40.101562 C 16.300781 40.371094 16.394531 40.554688 16.589844 40.832031 C 17.566406 41.851562 21.652344 43.398438 23.46875 43.398438 C 23.609375 43.398438 23.738281 43.390625 23.847656 43.371094 C 24.332031 43.277344 24.714844 43.003906 24.90625 42.546875 C 25.003906 42.273438 25.003906 42.089844 25.003906 36.320312 L 25.003906 33.664062 C 25.003906 32.863281 24.648438 32.597656 23.976562 32.320312 C 23.726562 32.253906 23.464844 32.210938 23.214844 32.210938 Z M 29.855469 32.226562 C 29.878906 32.230469 29.910156 32.238281 29.941406 32.246094 L 32.378906 33.019531 C 34.066406 33.542969 35.269531 33.914062 36.125 34.175781 C 36.832031 34.390625 37.378906 34.554688 37.699219 34.664062 C 37.402344 35.695312 35.191406 38.320312 34.15625 38.875 C 34.0625 38.726562 33.9375 38.527344 33.792969 38.300781 C 33.316406 37.539062 32.429688 36.121094 30.785156 33.589844 Z M 23.296875 33.816406 C 23.324219 33.820312 23.363281 33.820312 23.402344 33.828125 L 23.402344 36.320312 C 23.402344 39.523438 23.402344 41.132812 23.386719 41.800781 C 21.964844 41.753906 18.964844 40.585938 17.976562 39.914062 C 18.542969 39.226562 20.011719 37.558594 22.128906 35.183594 Z M 23.296875 33.816406 "/>
</g>
</svg>
